<svg xmlns="http://www.w3.org/2000/svg" viewBox="0 0 128 128">
  <rect width="128" height="128" rx="6" fill="#3178c6"/>
  <path fill="#ffffff" d="M22.67 47h30.52v10.6h-10.83v40.8h-8.86v-40.8h-10.83zm55.95 0v8.17h-10.91v47.25h-8.86v-47.25h-10.91v-8.17h30.68z"/>
  <path fill="#ffffff" d="M51.69 65.2h8.86v14.85c0 1.69 0 3.34.09 4.92.07 1.58.25 2.96.54 4.14.29 1.18.73 2.12 1.32 2.82.59.7 1.38 1.05 2.37 1.05 1.14 0 2.04-.4 2.7-1.2.66-.8 1.11-1.9 1.35-3.3.24-1.4.36-3.02.36-4.86v-18.42h8.86v18.65c0 3.75-.43 6.96-1.29 9.63-.86 2.67-2.18 4.71-3.96 6.12-1.78 1.41-4.08 2.12-6.9 2.12-2.82 0-5.12-.71-6.9-2.12-1.78-1.41-3.1-3.45-3.96-6.12-.86-2.67-1.29-5.88-1.29-9.63v-18.65z"/>
</svg>
